<svg version="1.2" xmlns="http://www.w3.org/2000/svg" viewBox="0 0 436 194" width="436" height="194">
	<title>moontoklogo+text alignment-svg</title>
	<defs>
		<linearGradient id="g1" x1="86.5" y1="31.5" x2="53.3" y2="167.5" gradientUnits="userSpaceOnUse">
			<stop offset="0" stop-color="#e5eee9"/>
			<stop offset="1" stop-color="#d3d4c4"/>
		</linearGradient>
		<linearGradient id="g2" x1="87.8" y1="91.9" x2="76.1" y2="110.6" gradientUnits="userSpaceOnUse">
			<stop offset="0" stop-color="#f0f5f1"/>
			<stop offset="1" stop-color="#f0f5f1" stop-opacity="0"/>
		</linearGradient>
		<linearGradient id="g3" x1="69" y1="107.7" x2="65.2" y2="131.4" gradientUnits="userSpaceOnUse">
			<stop offset="0" stop-color="#cdcbb2" stop-opacity="0"/>
			<stop offset=".3" stop-color="#cdba90"/>
			<stop offset=".8" stop-color="#875a31"/>
			<stop offset="1" stop-color="#583321"/>
		</linearGradient>
		<linearGradient id="g4" x1="85.6" y1="101.2" x2="72.3" y2="129.9" gradientUnits="userSpaceOnUse">
			<stop offset="0" stop-color="#cdcbb2" stop-opacity="0"/>
			<stop offset=".3" stop-color="#cdba90"/>
			<stop offset=".7" stop-color="#906538"/>
			<stop offset="1" stop-color="#875a31"/>
		</linearGradient>
		<linearGradient id="g5" x1="99.3" y1="93.9" x2="95.6" y2="154.3" gradientUnits="userSpaceOnUse">
			<stop offset="0" stop-color="#e5eee9"/>
			<stop offset=".6" stop-color="#b89960"/>
			<stop offset="1" stop-color="#724929"/>
		</linearGradient>
		<linearGradient id="g6" x1="96" y1="93.7" x2="92.4" y2="154.1" gradientUnits="userSpaceOnUse">
			<stop offset="0" stop-color="#e5eee9"/>
			<stop offset=".6" stop-color="#b89960"/>
			<stop offset="1" stop-color="#724929"/>
		</linearGradient>
		<linearGradient id="g7" x1="69.1" y1="19.3" x2="83.3" y2="35.8" gradientUnits="userSpaceOnUse">
			<stop offset="0" stop-color="#ffffff"/>
			<stop offset="1" stop-color="#cdba90"/>
		</linearGradient>
		<linearGradient id="g8" x1="60.6" y1="116.3" x2="60.3" y2="145.6" gradientUnits="userSpaceOnUse">
			<stop offset="0" stop-color="#cdcbb2" stop-opacity="0"/>
			<stop offset=".8" stop-color="#875a31"/>
			<stop offset="1" stop-color="#583321"/>
		</linearGradient>
		<linearGradient id="g9" x1="74.7" y1="156.2" x2="70.5" y2="163.3" gradientUnits="userSpaceOnUse">
			<stop offset="0" stop-color="#3e2310"/>
			<stop offset=".8" stop-color="#875a31"/>
			<stop offset="1" stop-color="#583321"/>
		</linearGradient>
		<linearGradient id="g10" x1="54.9" y1="171.6" x2="52.2" y2="179.4" gradientUnits="userSpaceOnUse">
			<stop offset="0" stop-color="#794c2b"/>
			<stop offset=".6" stop-color="#875a31"/>
			<stop offset="1" stop-color="#583321"/>
		</linearGradient>
		<linearGradient id="g11" x1="52.1" y1="170.6" x2="49.9" y2="179.9" gradientUnits="userSpaceOnUse">
			<stop offset="0" stop-color="#cdcbb2" stop-opacity="0"/>
			<stop offset=".3" stop-color="#cdba90"/>
			<stop offset=".8" stop-color="#875a31"/>
			<stop offset="1" stop-color="#583321"/>
		</linearGradient>
		<linearGradient id="g12" x1="69.3" y1="158.3" x2="68.3" y2="160.4" gradientUnits="userSpaceOnUse">
			<stop offset="0" stop-color="#cdcbb2" stop-opacity="0"/>
			<stop offset=".3" stop-color="#cdba90"/>
			<stop offset="1" stop-color="#cdcbb2" stop-opacity="0"/>
		</linearGradient>
		<linearGradient id="g13" x1="62.3" y1="111.4" x2="59.8" y2="152.7" gradientUnits="userSpaceOnUse">
			<stop offset="0" stop-color="#e5eee9"/>
			<stop offset=".6" stop-color="#c0a878"/>
			<stop offset="1" stop-color="#906d47"/>
		</linearGradient>
	</defs>
	<style>
		.s0 { fill: url(#g1) } 
		.s1 { fill: url(#g2) } 
		.s2 { fill: url(#g3) } 
		.s3 { fill: #4f2d21 } 
		.s4 { fill: url(#g4) } 
		.s5 { fill: url(#g5) } 
		.s6 { fill: url(#g6) } 
		.s7 { fill: url(#g7) } 
		.s8 { fill: url(#g8) } 
		.s9 { fill: url(#g9) } 
		.s10 { fill: url(#g10) } 
		.s11 { fill: url(#g11) } 
		.s12 { fill: #704729 } 
		.s13 { fill: #442715 } 
		.s14 { opacity: .3;fill: url(#g12) } 
		.s15 { fill: #f6f6f6 } 
		.s16 { fill: url(#g13) } 
		.s17 { fill: #dde2d8 } 
	</style>
	<path id="Layer" fill-rule="evenodd" class="s0" d="m131.6 146.4c-4.6 19.7-17.9 34.3-23.5 40.1 0.5-1 7.4-12 8.9-20.5 1.6-8.5-0.1-11.7-0.6-11.1-0.5 0.6-2.2 4.8-4.9 8.7 3.5-8.6 5.6-23.2 1-35.8-4.6-12.6-14.1-22.2-18.4-25.3 3.2 2.4 8.5 11.6 10.8 20.9 2.2 9.3 0.2 27.4-2.3 32.8 0.1-1.5 1.5-13-0.8-17.4 0 0-0.4 4.9-1.8 8-1.1-6.2-3.7-14.1-10.6-24.7-6.9-10.6-19-15.6-26.6-21.1-7.6-5.5-13.9-11.3-15.6-13.5 3.8 6.1 9.1 10.5 15.6 15 6.5 4.5 20.1 11.9 26.2 24.4 6.1 12.5 8 25.6 7 33.3-0.3-3.9-1.8-13.5-8.3-19.3-6.5-5.8-23.2-10.6-35.5-21.4-12.3-10.8-14.9-20.1-16-25.1 0.6 8.4 3.1 16.6 8.2 25.5 5.1 8.9 13.4 15.6 18.1 18.4 4.7 2.9 16.4 9.4 23 18.8 6.6 9.4 8.3 20.8 8.8 28.9-2-13.2-5.6-18.9-12.5-25.3-6.9-6.4-19-11.3-25.3-13.2-6.4-1.9-12.4-3.8-19.2-10.9-6.9-7-9.2-15.5-10.2-19.4-1.1-4-1-9.8-4.4-14-3.4-4.3-6.9-3.7-10-4.2-3-0.6-7.1-3.6-8.7-4.8-1.6-1.1-1.3-2-1.3-2.4 0-0.4-0.9-0.9-1.1-1-0.2-0.1-0.4-0.4-0.4-0.5 0-0.1-0.4-0.1-0.6-0.2-0.2-0.1 0.1-0.4 0.2-0.6 0.1-0.2-0.3 0-0.5-0.2-0.2-0.2 0-1.4 0.2-1.7 0.2-0.3-0.4-0.3-0.5-0.5-0.1-0.2 0.3-0.7 0.5-0.9 0.1-0.3-0.5-0.4-0.6-0.6-0.1-0.2 0.7-0.4 0.9-0.5 0.2-0.1-0.3-0.1-0.5-0.5-0.2-0.4 1-2.2 3.4-3.8 2.4-1.6 4.2-4.1 7.2-9.3 3-5.2 7.5-9.3 7.5-9.3 7.2-6.8 17-8 20.6-8.7 3.7-0.7 5.7-3.5 7.4-6.5 1.7-3 14.4-23.7 29.1-36.1 14.7-12.4 27.5-12.2 26.5-8.7-1 3.5-9.3 26.7-17.3 37.6-8 10.9-25.8 20.6-27.4 21.1 2.1 5 11 9.9 12.7 9.9 14.5 0 24.1 0.1 41.7 12.5 17.7 12.5 24.5 43.5 19.9 63.1zm-99.5-77.1c-1.8-1.4-6.2-1.7-9.9 0.4-3.7 2.1-4.7 5.8-4.8 7.4 1.1-1.4 2.6-2.3 6.5-3.3 3.9-1 6.2-1.8 8.2-4.5zm3.2 43c-1.2 19.6 16.9 29.7 27.9 30.2-24.9-12.8-27.9-30.2-27.9-30.2zm30.9-66.3c8.5-4.6 15.4-10.6 17.2-17.6-3.9 0.6-15.7 5.2-20.8 10.9-5.1 5.7-10.9 15.6-11.8 18.9 2.8-3.4 6.9-7.5 15.4-12.2z"/>
	<path id="Layer" class="s1" d="m93.1 101.6c9.1 8.6 10.8 18.7 11.1 26.4-3.5-23.2-22.9-33.8-30.9-36.7-8-2.9-19.7-7.1-19.7-7.1 15.5 3.5 30.4 8.9 39.5 17.4z"/>
	<path id="Layer" class="s2" d="m90.2 129.3c5.3 11.8 7 23.8 6 31.1-0.3-3.9-1.8-13.5-8.3-19.3-6.5-5.8-23.2-10.6-35.5-21.4-7.9-6.9-11.8-13.2-13.9-18.1-1.7-6.1-3.4-14-1.9-11.2 0 0 5.4 14.1 20.1 19.7 11.1 4.2 25.3 6 33.5 19.2z"/>
	<path id="Layer" class="s3" d="m92.7 148c-1.2-2.5-2.8-4.9-5-6.8-6.5-5.8-23.2-10.6-35.5-21.4-0.3-0.3-0.7-0.6-1-0.9-0.1-0.1-0.1-0.1-0.2-0.2q-0.4-0.4-0.9-0.9l-0.1-0.1c-0.3-0.3-0.5-0.5-0.8-0.8-0.1-0.1-0.1-0.1-0.2-0.2-0.2-0.2-0.5-0.5-0.8-0.8-0.1-0.1-0.1-0.1-0.2-0.2-0.2-0.2-0.5-0.5-0.7-0.7 0-0.1-0.1-0.1-0.1-0.2-0.2-0.3-0.5-0.5-0.7-0.8-0.1-0.1-0.1-0.1-0.2-0.2-0.2-0.2-0.4-0.5-0.6-0.7l-0.1-0.1c-0.3-0.3-0.5-0.5-0.7-0.8-0.1 0-0.1-0.1-0.2-0.2-0.2-0.3-0.4-0.5-0.6-0.8 0-0.1-0.1-0.1-0.1-0.2-0.2-0.2-0.3-0.4-0.5-0.6-0.1-0.1-0.1-0.2-0.2-0.3-0.2-0.2-0.3-0.5-0.5-0.7 0-0.1-0.1-0.1-0.1-0.2 3.8 4.4 11.1 11.2 20.3 16 12.6 6.5 26.8 11.4 29.7 22.8z"/>
	<path id="Layer" class="s4" d="m102.8 156.4c0.1-1.5 1.5-13-0.8-17.4 0 0-0.4 4.9-1.8 8-1.1-6.2-3.7-14.1-10.6-24.7-6.9-10.6-19-15.6-26.6-21.1-6.4-4.7-12-9.6-14.5-12.3 11.4 7 42.6 9 53.8 26.3 1.1 2.7 2.1 5.5 2.8 8.4 2.3 9.2 0.3 27.4-2.3 32.8z"/>
	<g id="Layer">
		<g id="Layer">
			<path id="Layer" class="s5" d="m124.9 125.1c3.7 18.1 2.8 32.9-3.9 45.8-4.8 7.3-9.8 12.7-12.7 15.7 0.5-1 7.4-12 8.9-20.5 1.6-8.5-0.1-11.7-0.6-11.1-0.5 0.6-2.2 4.8-4.9 8.7 3.5-8.6 5.6-23.2 1-35.8-4.6-12.4-14-22.1-18.3-25.2-5.4-5.3-13.8-11.3-25.7-14.4 21.2 0.1 50.7 11 56.2 36.8z"/>
			<path id="Layer" class="s6" d="m94.4 102.8c0.7 0.7 1.4 1.3 2 2-0.7-0.9-1.4-1.6-2-2z"/>
		</g>
	</g>
	<path id="Layer" class="s7" d="m87.7 22c4-8.5 8.5-18.3 12.8-21.6 1.1 0.3 1.6 1 1.4 1.8-1 3.5-9.3 26.7-17.3 37.6-8 10.9-25.8 20.6-27.4 21.1 0.1 0.1 0.1 0.1 0.1 0.2-0.7-0.6-1.3-0.8-1.3-0.8 0-0.2 4.4-4.9 13.1-11.6 8.7-6.7 13.6-15.8 18.6-26.7z"/>
	<path id="Layer" class="s8" d="m86.4 158.4c6 9.2 7.6 20 8.1 27.8-2-13.2-5.6-18.9-12.5-25.3-6.9-6.4-19-11.3-25.3-13.2-6.4-1.9-12.4-3.8-19.2-10.9-6.9-7-9.2-15.5-10.2-19.4-0.5-1.8-0.7-4.1-1.2-6.4 1.9 5.1 5.2 12 13.9 18.2 5.9 8.5 16.1 13 23.3 13.3-0.3-0.2-0.5-0.3-0.7-0.4 14.4 6 18.9 9 23.8 16.3z"/>
	<path id="Layer" class="s9" d="m85 175.5c-7.1-11.7-12.3-11.1-17.4-13.2-5-2.2-11.9-10.9-11.9-10.9 10.8 2.6 23.5 9.5 29.3 24.1z"/>
	<path id="Layer" class="s10" d="m35.5 162c0 0 2.6 8.7 13.8 11.1 11.2 2.4 19.6 4.9 21 20.7-2-6.2-4.6-10.3-9.9-11.9-5.3-1.6-13.4-2.6-19.4-8.9-6.1-6.5-6.6-11.8-5.5-11z"/>
	<path id="Layer" class="s11" d="m35.5 162c0 0 2.6 8.7 13.8 11.1 8.2 1.8 14.8 3.6 18.4 10.6-3.5-5-9.9-7-18.9-9.4-10-2.7-12.9-11.1-13.3-12.3z"/>
	<path id="Layer" class="s12" d="m62.7 143.1c7.7 3.7 18.1 9.8 24.2 21.7-4-9.4-11.2-17.2-24.2-21.7z"/>
	<path id="Layer" class="s13" d="m56.6 147.8c-6.4-1.9-12.4-3.8-19.2-10.9-0.1-0.1-0.1-0.1-0.2-0.2 5 3.7 12.3 7.3 22.4 12-1.1-0.4-2.1-0.8-3-0.9z"/>
	<path id="Layer" class="s14" d="m78.2 166.1c-2.7-2.4-18-8.2-19.5-12.2 6.5 2.6 15 5.2 19.5 12.2z"/>
	<path id="Layer" class="s15" d="m16.1 67.7c-1.3 1.8-6.1 9.9-9.4 12.4-3.3 2.5-5 4.3-4.6 7.3 0.4 2.4 1.4 4.5 0.8 5.4-0.2-0.4-0.1-0.7-0.1-0.9 0-0.4-0.9-0.9-1.1-1-0.2-0.1-0.4-0.4-0.4-0.5 0-0.1-0.4-0.1-0.6-0.2-0.2-0.1 0.1-0.4 0.2-0.6 0.1-0.2-0.3 0-0.5-0.2-0.2-0.2 0-1.4 0.2-1.7 0.2-0.3-0.4-0.3-0.5-0.5-0.1-0.2 0.3-0.7 0.5-0.9 0.1-0.3-0.5-0.4-0.6-0.6-0.1-0.2 0.7-0.4 0.9-0.5 0.2-0.1-0.3-0.1-0.5-0.5-0.2-0.4 1-2.2 3.4-3.8 2.4-1.6 4.2-4.1 7.2-9.3 3-5.2 7.5-9.3 7.5-9.3 7.2-6.8 17-8 20.6-8.7 3.7-0.7 5.7-3.5 7.4-6.5 1.7-3 14.4-23.7 29.1-36.1 10.5-8.8 20-11.3 24.2-10.7-7.4 2.1-15.7 3.5-27.3 17.3-15.1 17.8-19.4 24.4-23.5 30.3-4.1 5.9-2.6 5.6-10.7 7.9-8.1 2.3-20.8 10.1-22.2 11.9z"/>
	<path id="Layer" class="s16" d="m62 142.4c0.4 0.1 0.8 0.1 1.2 0.1-14.1-7.3-21.2-16-24.7-22.2-0.2-3 0.1-6.5 1.3-10.2 1.3 3.3 2.8 6.6 4.8 10.1 5.1 8.9 13.4 15.6 18.1 18.4 4.1 2.5 13.8 7.9 20.5 15.6-3.7-2.9-19.1-12.3-21.2-11.8z"/>
	<g id="Layer">
		<path id="Layer" fill-rule="evenodd" class="s17" d="m211.5 91.6v30.7c0 2.3-2.1 3.7-3.7 2.2-1.4-1.3-3.1-2.1-4.4-2.5-0.6-0.2-0.5-0.7 0.2-0.7 1.4 0 3.8 0 4.2-0.1 0.2-0.1 0.2-0.3 0.2-0.5v-11.1h-13.9c-0.2 2.5-0.7 4.8-1.6 6.6-1.7 3.7-4.7 7.1-9.2 8.9-0.5 0.2-1.1-0.3-0.5-0.8 4.2-3.3 7.3-7.7 7.8-14.4 0.4-5 0.4-12.9 0.3-22.1l2.8 0.6c0.5 0.1 0.7 0.3 0.7 0.6h11.6c0.7 0 1.3-0.3 1.9-1.1l2.9 0.9c2 0.7 0.7 1.9 0.7 2.8zm-3.6 9.1h-13.5v1.6c0 1.6 0 3.3-0.2 5.1h13.7zm-13.5-9.3v7h13.5v-7z"/>
		<path id="Layer" fill-rule="evenodd" class="s17" d="m259.8 123.5c-1.6 0.8-4.9 0.9-8.6 0.8-7.5-0.3-7.7-0.8-7.7-8v-6.6h-0.7c-0.6 2.4-1.5 4.7-2.8 6.6-3.7 5.4-10.5 8.2-15.6 8.9-0.5 0.1-0.9-0.6-0.3-0.8 4.4-1.8 10-4 13.8-10.2 0.7-1.2 1.3-2.7 1.7-4.4h-6.6v0.1c0 2.1-1.8 2.6-3.4 2.3v-11.5c-1.5 1.3-3 2.4-4.6 3.4-0.5 0.3-0.9-0.3-0.4-0.8 2.3-2.2 4.7-4.9 6.9-7.8 1.9-2.6 4-6.3 4.8-8.5l2.1 1.2c0.9 0.5 0.9 0.8 0.7 1.2-0.2 0.4-0.6 1.1-1.3 2h7.9c0.7 0 1.2-0.3 1.8-0.9l2 1.7c0.7 0.6 0.5 0.9 0 1.4-1.1 1.1-3.5 3.8-5.4 5.4h6.7c0.7 0 0.9-0.3 1.5-0.9l2.8 0.8c1.7 0.5 0.6 1.4 0.6 2.4v7.9c0 1.9-1.7 2.4-3.4 2v-1.5h-5.3v8.1c0 2.8 0.2 3.2 3.6 3.4 3.3 0.2 4.7 0.1 6-0.1 0.9-0.2 1.1-0.8 1.3-1.8l0.4-2.7c0-0.3 0.6-0.3 0.6 0 0.3 2.6 0.6 3.7 1.2 4.3 0.8 1 0.5 2.2-0.3 2.6zm-23.8-29.9c-1.2 1.5-2.6 3.2-4.2 4.8h0.2c0.7 0.1 0.9 0.3 0.9 0.6h9c1-1.3 2.4-3.5 3.7-5.5h-9.6zm3.9 13.8c0.4-2 0.6-4.1 0.7-6.2h-7.7v6.2zm3.4 0h8.8v-6.2h-8c-0.2 2.1-0.4 4.2-0.8 6.2zm11.4 8.1c1.6 2.4-0.5 5.1-2.2 2.4-1.1-1.7-2.4-3.7-3.2-5-0.3-0.4 0.1-0.8 0.5-0.7 2.1 0.8 3.8 1.7 4.9 3.3z"/>
		<path id="Layer" class="s17" d="m277.1 121.1c2.2-0.3 2.7-1.4 3.1-5.2l2.1-19.8c0.2-1.6-0.1-1.9-2.3-2-0.7 0-0.7-0.4-0.4-1.3h5.9l9.6 22.4c0 0.1 0.2 0.1 0.2 0l8.6-22.4h6.8c-0.2 1-0.3 1.3-0.9 1.3-1 0-2.1 0.2-1.9 2.1 0.9 10.1 1.7 20.2 2.4 22.8 0.5 1.8 1.1 1.9 3 2.1-0.3 1-0.4 1.3-1.1 1.3h-9.2c0.2-1 0.3-1.3 0.9-1.3 2.1-0.2 2.3-0.5 2.2-2l-1.8-20.5-9.1 24c-0.1 0.4-1.2 0.4-1.3 0l-9.6-22.4c-0.9 8.1-1.7 15-1.8 16.5-0.3 3.4-0.1 3.8 3.4 4.3-0.3 1-0.4 1.3-0.9 1.3h-8.7c0.1-0.7 0.1-1.1 0.8-1.2z"/>
		<path id="Layer" fill-rule="evenodd" class="s17" d="m315.9 112.8c0-5.5 3.9-10.1 9.5-10.1 5.5 0 9.1 4.3 9.1 10.1 0 5.5-3.9 10.1-9.5 10.1-6 0-9.1-4.7-9.1-10.1zm14.6 0.6c0-4.5-2.1-9.1-5.7-9.1-3.8 0-4.9 3.4-4.9 7.9 0 4.4 2 9 5.4 9 4 0 5.2-2.9 5.2-7.8z"/>
		<path id="Layer" fill-rule="evenodd" class="s17" d="m337.2 112.8c0-5.5 3.9-10.1 9.5-10.1 5.5 0 9.1 4.3 9.1 10.1 0 5.5-3.9 10.1-9.5 10.1-5.9 0-9.1-4.7-9.1-10.1zm14.6 0.6c0-4.5-2.1-9.1-5.7-9.1-3.8 0-4.9 3.4-4.9 7.9 0 4.4 2 9 5.4 9 4 0 5.2-2.9 5.2-7.8z"/>
		<path id="Layer" class="s17" d="m359.1 121.3c1.4-0.3 1.5-0.6 1.5-5v-9.8c0-0.5-0.3-1.1-1.2-1.1h-0.6c-0.5 0-0.7-0.4-0.1-0.6 1.8-0.7 3.7-1.6 5.2-2.2 0.3-0.1 0.5 0 0.5 0.4-0.1 0.7 0 2.8 0 3.9 2-2.7 3.5-4 5.7-4 4.1 0 6.4 2.8 6.4 7.3v5c0 5.9 0 6.1 2.1 6.2-0.3 0.8-0.3 1.1-0.9 1.1h-7.2c0.2-0.9 0.2-1.1 0.7-1.1 1.4-0.2 1.6-0.5 1.6-4.4v-3.6c0-3.4-0.2-7.8-3.4-7.8-2.2 0-3.2 0.8-4.9 2.3v7.3c0 5.9 0 6.1 2.1 6.2-0.3 0.8-0.3 1.1-0.9 1.1h-7.2c0.1-0.9 0.1-1.1 0.6-1.2z"/>
		<path id="Layer" class="s17" d="m392.6 120.8c-0.7 0.8-2.5 2.1-4.8 2.1-2.9 0-4.7-1.5-4.7-5.8v-11.8h-3.1l0.1-0.5c0-0.3 0.3-0.5 0.6-0.6 3.3-0.5 4-3.2 4.8-6 0.1-0.3 1.4-0.2 1.4 0.1v4.9h5.8c-0.2 1.4-0.3 2.2-1.3 2.2h-4.4v10.8c0 4.1 1.3 4.8 2.9 4.8 0.8 0 1.7-0.2 2.5-0.5 0.3-0.4 0.6 0 0.2 0.3z"/>
		<path id="Layer" fill-rule="evenodd" class="s17" d="m394.6 112.8c0-5.5 3.9-10.1 9.5-10.1 5.5 0 9.1 4.3 9.1 10.1 0 5.5-3.9 10.1-9.5 10.1-6 0-9.1-4.7-9.1-10.1zm14.5 0.6c0-4.5-2.1-9.1-5.7-9.1-3.8 0-4.9 3.4-4.9 7.9 0 4.4 2 9 5.4 9 4 0 5.2-2.9 5.2-7.8z"/>
		<path id="Layer" class="s17" d="m434.7 122.5c-0.5 0-1.2 0.1-2.7 0-1 0-3-0.1-4.4-1.9l-6.2-7.7c0-0.1-0.1-0.1-0.1-0.2v2.4c0 5.9 0 6.1 2.2 6.2-0.2 0.8-0.3 1.1-0.9 1.1h-7.3c0.2-0.9 0.2-1.1 0.7-1.1 1.3-0.2 1.6-0.5 1.6-5v-20c0-0.8-0.2-1.6-1.3-1.6h-0.7c-0.5 0-0.6-0.4 0-0.6 1.8-0.7 3.8-1.4 5.5-1.9 0.4-0.1 0.5 0 0.5 0.4-0.2 1.9-0.2 8-0.2 12v7.8c0 0 0.1-0.1 0.2-0.2l4.5-4.3c1.6-1.5 2.2-2.4 2.2-2.8-0.1-0.7-0.5-0.8-1.5-0.8h-0.8c0.3-0.8 0.3-1.1 0.8-1.1h7.5c-0.2 0.9-0.4 1.1-0.7 1.1-2.1 0-3 1.9-8.6 7 3.3 4.1 7.4 9.4 10 10.7 0.4 0.1 0.1 0.5-0.3 0.5z"/>
	</g>
</svg>